<svg height="64px" width="64px" version="1.1" id="Layer_1" xmlns="http://www.w3.org/2000/svg" xmlns:xlink="http://www.w3.org/1999/xlink" viewBox="0 0 512 512" xml:space="preserve" fill="#000000"><g id="SVGRepo_bgCarrier" stroke-width="0"></g><g id="SVGRepo_tracerCarrier" stroke-linecap="round" stroke-linejoin="round"></g><g id="SVGRepo_iconCarrier"> <path style="fill:#981700;" d="M357.123,402.832v0.03c-0.414,0-0.825-0.012-1.239-0.015c-0.413,0.003-0.825,0.015-1.239,0.015v-0.03 c-80.105-1.275-144.638-64.215-144.638-141.685c0-120.646,66.414-94.914,145.877-94.645c79.463-0.27,145.877-26.001,145.877,94.645 C501.76,338.617,437.227,401.556,357.123,402.832z"></path> <path style="fill:#7A1700;" d="M501.76,261.146c0,77.47-64.533,140.41-144.638,141.685v0.03c-0.414,0-0.826-0.012-1.239-0.015 c-0.413,0.003-0.825,0.015-1.239,0.015v-0.03c-76.354-1.216-138.559-58.455-144.218-130.902c19.193,6.205,39.659,9.57,60.911,9.57 c79.652,0,148.322-47.086,179.848-114.997C482.019,173.108,501.76,195.372,501.76,261.146z"></path> <path style="fill:#CAEEC5;" d="M180.517,443.493c-88.827,0-161.497-72.679-161.497-161.504v-53.835h322.993v53.835 C342.013,370.814,269.336,443.493,180.517,443.493L180.517,443.493L180.517,443.493z"></path> <path style="fill:#F4BB19;" d="M328.533,346.374c-24.997,57.022-82.049,97.118-148.017,97.118 c-84.074,0-153.661-65.113-160.869-147.397c32.114-9.332,68.481-14.595,107.006-14.595 C212.274,281.5,287.229,307.492,328.533,346.374z"></path> <path style="fill:#5B7F81;" d="M137.902,332.641c11.068-1.537,22.523,3.604,28.432,13.839l11.724,20.307 c7.769,13.461,3.121,30.833-10.342,38.603c-13.463,7.775-30.833,3.121-38.604-10.341l-11.726-20.311 c-6.634-11.494-4.204-25.833,5.027-34.619L137.902,332.641z"></path> <path style="fill:#FFBB5E;" d="M121.18,103.299c12.055,17.981,14.649,50.106-0.904,67.454c-1.693,1.888-4.031,2.85-6.38,2.85 c-2.042,0-4.091-0.726-5.728-2.201c-3.522-3.172-3.812-8.606-0.646-12.136c8.812-9.829,8.528-32.803-0.574-46.378 c-8.646-12.893-12.273-31.382-9.238-47.101c0.899-4.659,5.4-7.707,10.046-6.806c4.649,0.901,7.689,5.41,6.79,10.069 C112.363,80.362,115.03,94.126,121.18,103.299z M164.05,103.299c-6.152-9.174-8.819-22.938-6.635-34.25 c0.899-4.659-2.141-9.168-6.79-10.069c-4.645-0.9-9.147,2.145-10.046,6.806c-3.033,15.719,0.592,34.208,9.238,47.101 c9.103,13.577,9.389,36.551,0.576,46.382c-3.165,3.53-2.875,8.964,0.647,12.136c1.638,1.475,3.686,2.201,5.727,2.201 c2.349,0,4.687-0.961,6.38-2.851C178.7,153.407,176.106,121.281,164.05,103.299z"></path> <path style="fill:#7E9332;" d="M358.6,164.36c1.111,4.614-1.722,9.256-6.325,10.369c-0.675,0.163-1.352,0.241-2.017,0.241 c-3.87,0-7.381-2.644-8.328-6.581l-13.853-57.574c-1.111-4.614,1.722-9.256,6.325-10.369c4.603-1.112,9.235,1.726,10.345,6.339 L358.6,164.36z M502.448,13.948c-30.64-3.97-60.483,4.212-81.596,25.314c-21.11,21.105-29.307,50.942-25.35,81.584 c30.64,3.972,60.48-4.212,81.593-25.315C498.208,74.43,506.405,44.589,502.448,13.948z"></path> <path style="fill:#9E9D9D;" d="M369.417,499.031c0,4.746-3.839,8.594-8.573,8.594H17.338c-4.736,0-8.574-3.847-8.574-8.594 s3.839-8.594,8.574-8.594h343.505C365.579,490.437,369.417,494.284,369.417,499.031z M493.187,442.349H322.328 c-4.736,0-8.573,3.848-8.573,8.594s3.839,8.594,8.573,8.594h170.858c4.736,0,8.573-3.847,8.573-8.594 C501.76,446.197,497.923,442.349,493.187,442.349z"></path> <path style="fill:#FF7B00;" d="M214.02,326.27h-1.617c-4.736,0-8.574-3.847-8.574-8.594s3.839-8.594,8.574-8.594h1.617 c4.736,0,8.574,3.848,8.574,8.594S218.756,326.27,214.02,326.27z M273.528,340.208h-1.614c-4.736,0-8.574,3.848-8.574,8.594 s3.839,8.594,8.574,8.594h1.614c4.736,0,8.574-3.847,8.574-8.594C282.102,344.057,278.264,340.208,273.528,340.208z M227.283,382.477h-1.617c-4.736,0-8.574,3.847-8.574,8.594s3.839,8.594,8.574,8.594h1.617c4.736,0,8.574-3.848,8.574-8.594 C235.857,386.325,232.018,382.477,227.283,382.477z M68.652,318.225h-1.617c-4.736,0-8.574,3.848-8.574,8.594 s3.839,8.594,8.574,8.594h1.617c4.736,0,8.574-3.847,8.574-8.594S73.387,318.225,68.652,318.225z"></path> <path d="M422.747,155.421c-10.019,0-20.472,0.569-31.537,1.171c-11.079,0.603-22.528,1.214-34.169,1.29l-12.295-51.096 c-1.11-4.613-5.741-7.451-10.345-6.339c-4.603,1.113-7.435,5.755-6.325,10.369l11.235,46.692 c-6.349-0.249-12.612-0.582-18.756-0.916c-11.065-0.602-21.516-1.171-31.536-1.171c-42.933,0-74.157,11.989-84.178,64.13H70.267 l-54.201-94.486c-2.365-4.122-7.622-5.545-11.742-3.181c-4.121,2.364-5.545,7.621-3.182,11.742l49.292,85.923H19.02 c-4.752,0-8.603,3.852-8.603,8.603v53.835c0,45.258,17.742,87.927,49.957,120.144c32.217,32.219,74.883,49.963,120.142,49.963 c45.255,0,87.921-17.744,120.139-49.963c0.205-0.205,0.404-0.417,0.609-0.624c16.573,6.139,34.276,9.538,52.497,9.91 c0.572,0.058,1.165,0.045,1.751,0.035l0.371-0.005l0.371,0.005c0.289,0.004,0.577,0.01,0.868,0.01c0.297,0,0.59-0.015,0.88-0.045 c40.706-0.831,78.856-16.692,107.494-44.709c28.933-28.305,44.867-65.794,44.867-105.565c0-42.311-7.812-69.728-24.584-86.285 C468.426,157.73,444.177,155.421,422.747,155.421z M180.517,434.89c-84.306,0-152.894-68.591-152.894-152.902v-45.232h32.68 l55.952,97.539c-12.331,11.609-15.579,30.599-6.755,45.889l11.938,20.676c6.647,11.512,19.078,18.664,32.445,18.664 c6.524,0,12.959-1.725,18.607-4.986c8.62-4.974,14.791-13.037,17.38-22.702c2.587-9.663,1.273-19.73-3.701-28.349l-11.935-20.676 c-6.648-11.511-19.08-18.662-32.446-18.662c-3.596,0-7.18,0.539-10.621,1.562l-51.028-88.956h253.273v45.232 C333.411,366.299,264.823,434.89,180.517,434.89z M131.825,344.009c0.23-0.134,0.463-0.26,0.695-0.381 c2.885-1.51,6.004-2.274,9.267-2.274c7.239,0,13.963,3.855,17.546,10.061l11.936,20.673c2.678,4.639,3.382,10.071,1.982,15.296 c-1.399,5.225-4.724,9.576-9.363,12.253c-3.039,1.755-6.498,2.682-10.006,2.682c-7.239,0-13.962-3.855-17.545-10.062l-11.938-20.676 C118.841,361.951,122.154,349.592,131.825,344.009z M356.985,394.23c-0.165,0.002-0.328,0.01-0.49,0.022l-0.541-0.008 c-0.023,0-0.046,0-0.07,0c-0.024,0-0.047,0-0.07,0l-0.541,0.008c-0.162-0.012-0.326-0.019-0.49-0.022 c-14.303-0.228-28.096-2.582-41.058-6.738c23.906-29.999,36.891-66.802,36.891-105.504v-53.835c0-4.751-3.852-8.603-8.603-8.603 H222.386c3.18-14.481,8.382-25.228,15.691-32.442c10.283-10.151,25.518-14.482,50.943-14.482c9.553,0,19.777,0.557,30.601,1.145 c11.652,0.634,23.702,1.29,36.292,1.332c12.529-0.042,24.579-0.698,36.232-1.332c10.825-0.589,21.052-1.145,30.603-1.145 c25.428,0,40.663,4.33,50.945,14.48c13.098,12.93,19.465,37.149,19.465,74.04C493.158,333.334,432.071,393.034,356.985,394.23z M106.949,112.887c-8.646-12.893-12.273-31.381-9.238-47.101c0.899-4.659,5.4-7.707,10.046-6.806 c4.649,0.901,7.689,5.41,6.79,10.069c-2.183,11.312,0.484,25.075,6.635,34.25c12.055,17.981,14.649,50.106-0.904,67.454 c-1.693,1.888-4.031,2.85-6.38,2.85c-2.042,0-4.091-0.726-5.728-2.202c-3.522-3.172-3.812-8.606-0.646-12.136 C116.335,149.436,116.051,126.463,106.949,112.887z M149.817,112.887c-8.646-12.893-12.272-31.381-9.238-47.101 c0.899-4.659,5.4-7.706,10.046-6.806c4.649,0.901,7.689,5.41,6.79,10.069c-2.183,11.312,0.484,25.075,6.635,34.25 c12.055,17.981,14.65,50.108-0.901,67.456c-1.693,1.889-4.032,2.851-6.38,2.851c-2.041,0-4.089-0.726-5.727-2.201 c-3.523-3.172-3.812-8.606-0.647-12.136C159.206,149.438,158.921,126.464,149.817,112.887z M394.395,129.378 c5.33,0.691,10.697,1.041,15.95,1.042c0.001,0,0,0,0.001,0c28.38,0,54.247-10.23,72.829-28.803 c22.102-22.091,32.236-54.447,27.803-88.771c-0.5-3.875-3.551-6.927-7.426-7.429c-5.329-0.69-10.695-1.041-15.947-1.041 c-28.386,0-54.253,10.228-72.837,28.802c-22.099,22.096-32.232,54.451-27.799,88.77C387.47,125.824,390.52,128.875,394.395,129.378z M426.932,45.346c16.819-16.81,41.119-25.3,67.652-23.531c1.811,26.688-6.438,50.509-23.57,67.632 c-16.82,16.812-41.12,25.299-67.648,23.531C401.555,86.293,409.802,62.473,426.932,45.346z M369.417,499.031 c0,4.746-3.839,8.594-8.573,8.594H17.338c-4.736,0-8.574-3.847-8.574-8.594s3.839-8.594,8.574-8.594h343.505 C365.579,490.437,369.417,494.284,369.417,499.031z M501.76,450.943c0,4.746-3.839,8.594-8.573,8.594H322.328 c-4.736,0-8.573-3.847-8.573-8.594s3.839-8.594,8.573-8.594h170.858C497.923,442.349,501.76,446.197,501.76,450.943z M282.102,348.802c0,4.746-3.839,8.594-8.574,8.594h-1.614c-4.736,0-8.574-3.847-8.574-8.594c0-4.745,3.839-8.594,8.574-8.594h1.614 C278.264,340.208,282.102,344.057,282.102,348.802z M77.226,326.819c0,4.746-3.839,8.594-8.574,8.594h-1.617 c-4.736,0-8.574-3.847-8.574-8.594s3.839-8.594,8.574-8.594h1.617C73.387,318.225,77.226,322.073,77.226,326.819z M235.857,391.071 c0,4.746-3.838,8.594-8.574,8.594h-1.617c-4.736,0-8.574-3.848-8.574-8.594s3.839-8.594,8.574-8.594h1.617 C232.018,382.477,235.857,386.325,235.857,391.071z M214.02,326.27h-1.617c-4.736,0-8.574-3.847-8.574-8.594 s3.839-8.594,8.574-8.594h1.617c4.736,0,8.574,3.848,8.574,8.594C222.594,322.422,218.756,326.27,214.02,326.27z"></path> </g></svg>